<svg width="20" height="20" viewBox="0 0 20 20" fill="none" xmlns="http://www.w3.org/2000/svg">
<path opacity="0.4" d="M1.875 20C1.37772 20 0.900805 19.8025 0.549175 19.4508C0.197544 19.0992 0 18.6223 0 18.125L0 6.875C0 6.37772 0.197544 5.90081 0.549175 5.54917C0.900805 5.19754 1.37772 5 1.875 5H3.75V13.125C3.75093 13.9535 4.08047 14.7478 4.66632 15.3337C5.25217 15.9195 6.04648 16.2491 6.875 16.25H15V18.125C15 18.6223 14.8025 19.0992 14.4508 19.4508C14.0992 19.8025 13.6223 20 13.125 20H1.875Z" fill="#D41367" fill-opacity="0.4"/>
<path d="M20 1.875V13.125C20 13.6223 19.8025 14.0992 19.4508 14.4508C19.0992 14.8025 18.6223 15 18.125 15H6.875C6.37772 15 5.90081 14.8025 5.54917 14.4508C5.19754 14.0992 5 13.6223 5 13.125V1.875C5 1.37772 5.19754 0.900805 5.54917 0.549175C5.90081 0.197544 6.37772 0 6.875 0L18.125 0C18.6223 0 19.0992 0.197544 19.4508 0.549175C19.8025 0.900805 20 1.37772 20 1.875Z" fill="#D41367"/>
</svg>
