<svg width="24" height="20" viewBox="0 0 24 20" fill="none" xmlns="http://www.w3.org/2000/svg">
<path d="M10.6313 15.1389L5.76294 18.6944C6.63136 18.9722 6.63136 18.4167 7.49978 18C7.93399 19.25 9.26307 19.1667 10.7104 19.1667C12.1578 19.1667 13.4604 18.3334 13.8946 17.0834C15.1973 17.639 16.7894 17.3612 17.8025 16.389C18.8157 15.4167 19.1052 13.889 18.5262 12.639C19.8289 12.2223 20.6973 10.9723 20.6973 9.58342C20.6973 8.61119 19.9998 8.5 19.9998 8.5L14.5392 12.5C14.3945 13.4722 13.3813 13.6111 12.3682 13.75L12.0787 14.4444C12.0787 14.7222 11.7892 15 11.4998 15" fill="white"/>
<path d="M2.89469 12.7778C2.46047 13.75 2.46047 14.8611 3.03942 15.6944L8.39469 12.0833L9.69732 11.25L10.7105 10.5556L9.55258 10.2778C8.68416 10 7.96047 9.30556 7.81574 8.47222C7.671 7.22222 8.68416 6.25 9.84205 6.11111V5.41667C9.84205 5.13889 10.1315 4.86111 10.421 4.86111H10.9999C11.2894 4.86111 11.5789 5.13889 11.5789 5.41667V6.11111C12.0131 6.11111 12.4473 6.25 12.8815 6.52778C13.171 6.66667 13.171 6.94444 13.0263 7.22222L12.3026 7.91667C12.1578 8.05556 12.0131 8.05556 11.7236 7.91667C11.5789 7.91667 11.4342 7.91667 11.2894 7.91667H10.1315C9.98679 7.91667 9.84205 8.05556 9.84205 8.19444C9.84205 8.33333 9.98679 8.47222 10.1315 8.47222L12.1578 9.02778C12.4473 9.02778 12.5921 9.16667 12.8815 9.30556L19 4.86111C19 4.02778 18.8157 3.47222 18.0921 2.77778C17.0789 1.80556 15.4868 1.52778 14.1842 2.08333C13.4605 0.833333 12.1578 0 10.7105 0C9.26311 0 7.96047 0.833333 7.52626 2.08333C6.22363 1.52778 4.63153 1.80556 3.61837 2.77778C2.60521 3.88889 2.31574 5.27778 2.89469 6.52778C1.59205 6.94444 0.723633 8.19444 0.723633 9.58333C0.723633 10.9722 1.59205 12.2222 2.89469 12.7778Z" fill="white"/>
<path d="M22.0859 4.00001L2 18.0942L2.93813 19.3269L23.024 5.23271L22.0859 4.00001Z" fill="white"/>
</svg>
