<svg width="20" height="20" viewBox="0 0 20 20" fill="none" xmlns="http://www.w3.org/2000/svg">
<path d="M20 10C20 8.52734 19.0742 7.26953 17.7695 6.78125C18.3438 5.51562 18.1133 3.97266 17.0703 2.92969C16.0273 1.88672 14.4844 1.65625 13.2188 2.23047C12.7305 0.925781 11.4727 0 10 0C8.52734 0 7.26953 0.925781 6.78125 2.23047C5.51562 1.65625 3.96875 1.88672 2.92969 2.92969C1.88672 3.97266 1.65625 5.51562 2.23047 6.78125C0.925781 7.26953 0 8.52734 0 10C0 11.4727 0.925781 12.7305 2.23047 13.2188C1.65625 14.4844 1.88672 16.0312 2.92969 17.0703C3.96875 18.1094 5.51172 18.3477 6.78125 17.7695C7.26953 19.0703 8.52734 20 10 20C11.4727 20 12.7305 19.0742 13.2188 17.7695C14.4922 18.3477 16.0312 18.1094 17.0703 17.0703C18.1133 16.0273 18.3438 14.4844 17.7695 13.2188C19.0742 12.7305 20 11.4727 20 10ZM10.9375 13.6891V14.375C10.9375 14.7203 10.6578 15 10.3125 15H9.6875C9.34219 15 9.0625 14.7203 9.0625 14.375V13.6824C8.61641 13.6297 8.19219 13.4797 7.82109 13.2348C7.57812 13.0742 7.55469 12.7227 7.76055 12.5168L8.44492 11.8324C8.59102 11.6863 8.80859 11.6668 8.99609 11.7531C9.12031 11.8102 9.25625 11.8398 9.39688 11.8398H10.6773C10.8594 11.8398 11.007 11.6922 11.007 11.5109C11.007 11.3645 10.9086 11.2344 10.768 11.1941L8.81211 10.6355C7.94297 10.3875 7.24922 9.67031 7.13594 8.77344C6.97773 7.5207 7.8793 6.45195 9.0625 6.31055V5.625C9.0625 5.27969 9.34219 5 9.6875 5H10.3125C10.6578 5 10.9375 5.27969 10.9375 5.625V6.31758C11.3836 6.37031 11.8078 6.52031 12.1789 6.76523C12.4219 6.92578 12.4453 7.27734 12.2395 7.4832L11.5551 8.16758C11.409 8.31367 11.1914 8.3332 11.0039 8.24687C10.8781 8.18937 10.7414 8.15979 10.6031 8.16016H9.32266C9.14062 8.16016 8.99297 8.30781 8.99297 8.48906C8.99297 8.63555 9.09141 8.76562 9.23203 8.80586L11.1879 9.36445C12.057 9.61289 12.7508 10.3297 12.8641 11.2266C13.0223 12.4789 12.1207 13.5477 10.9375 13.6891Z" fill="white"/>
</svg>
