<svg width="18" height="16" viewBox="0 0 18 16" fill="none" xmlns="http://www.w3.org/2000/svg">
<g clip-path="url(#clip0)">
<path d="M8.99998 4.5C8.66877 4.50518 8.34001 4.5578 8.02373 4.65625C8.17003 4.91354 8.24793 5.20403 8.24998 5.5C8.24998 5.72981 8.20472 5.95738 8.11677 6.1697C8.02883 6.38202 7.89992 6.57493 7.73742 6.73744C7.57492 6.89994 7.382 7.02884 7.16968 7.11679C6.95736 7.20474 6.7298 7.25 6.49998 7.25C6.20402 7.24795 5.91352 7.17005 5.65623 7.02375C5.45324 7.72775 5.4769 8.47777 5.72386 9.16757C5.97081 9.85738 6.42855 10.452 7.03222 10.8672C7.6359 11.2824 8.35491 11.4972 9.08741 11.481C9.81991 11.4649 10.5288 11.2187 11.1136 10.7773C11.6984 10.3359 12.1295 9.72169 12.3458 9.02168C12.5621 8.32167 12.5527 7.57133 12.319 6.87696C12.0852 6.18258 11.6388 5.57937 11.0431 5.15277C10.4475 4.72616 9.73266 4.49779 8.99998 4.5ZM17.8912 7.54375C16.1965 4.23719 12.8415 2 8.99998 2C5.15842 2 1.80248 4.23875 0.108733 7.54406C0.037246 7.68547 0 7.8417 0 8.00016C0 8.15861 0.037246 8.31484 0.108733 8.45625C1.80342 11.7628 5.15842 14 8.99998 14C12.8415 14 16.1975 11.7612 17.8912 8.45594C17.9627 8.31453 18 8.1583 18 7.99984C18 7.84139 17.9627 7.68516 17.8912 7.54375ZM8.99998 12.5C5.91717 12.5 3.09092 10.7812 1.56467 8C3.09092 5.21875 5.91686 3.5 8.99998 3.5C12.0831 3.5 14.909 5.21875 16.4353 8C14.9094 10.7812 12.0831 12.5 8.99998 12.5Z" fill="#3D3D4E"/>
</g>
<defs>
<clipPath id="clip0">
<rect width="18" height="16" fill="white"/>
</clipPath>
</defs>
</svg>
