<svg width="20" height="16" viewBox="0 0 20 16" fill="none" xmlns="http://www.w3.org/2000/svg">
<g clip-path="url(#clip0)">
<path d="M19.8123 14.7188L1.12482 0.109688C1.07356 0.0686496 1.01472 0.038109 0.951663 0.0198098C0.888604 0.00151062 0.822558 -0.00418892 0.757295 0.00303664C0.692033 0.0102622 0.628833 0.0302714 0.571304 0.0619217C0.513775 0.093572 0.463043 0.136244 0.422005 0.1875L0.109505 0.577813C0.0683702 0.629087 0.0377501 0.687969 0.0193964 0.75109C0.0010427 0.81421 -0.00468433 0.880331 0.00254302 0.945667C0.00977036 1.011 0.0298102 1.07427 0.0615159 1.13186C0.0932216 1.18944 0.135971 1.24021 0.187317 1.28125L18.8748 15.8903C18.9261 15.9314 18.9849 15.9619 19.048 15.9802C19.111 15.9985 19.1771 16.0042 19.2423 15.997C19.3076 15.9897 19.3708 15.9697 19.4283 15.9381C19.4859 15.9064 19.5366 15.8638 19.5776 15.8125L19.8901 15.4222C19.9313 15.3709 19.9619 15.312 19.9802 15.2489C19.9986 15.1858 20.0043 15.1197 19.9971 15.0543C19.9899 14.989 19.9698 14.9257 19.9381 14.8681C19.9064 14.8106 19.8637 14.7598 19.8123 14.7188ZM9.27451 4.57719L13.4867 7.87031C13.4173 5.99719 11.8898 4.5 9.99982 4.5C9.75602 4.50046 9.51294 4.52633 9.27451 4.57719ZM10.7251 11.4231L6.51294 8.13C6.58263 10.0028 8.11013 11.5 9.99982 11.5C10.2436 11.4995 10.4867 11.4737 10.7251 11.4231ZM9.99982 3.5C13.0826 3.5 15.9089 5.21875 17.4351 8C17.061 8.68449 16.5987 9.31697 16.0601 9.88125L17.2395 10.8031C17.8961 10.1007 18.4524 9.31081 18.8926 8.45594C18.9641 8.31453 19.0014 8.1583 19.0014 7.99984C19.0014 7.84139 18.9641 7.68516 18.8926 7.54375C17.1964 4.23719 13.8414 2 9.99982 2C8.85294 2 7.75888 2.21875 6.73013 2.58781L8.18044 3.72188C8.77232 3.5875 9.37857 3.5 9.99982 3.5ZM9.99982 12.5C6.917 12.5 4.09107 10.7812 2.5645 8C2.93912 7.31552 3.40193 6.68314 3.94107 6.11906L2.76169 5.19719C2.10518 5.89952 1.54897 6.6893 1.10888 7.54406C1.03739 7.68547 1.00015 7.8417 1.00015 8.00016C1.00015 8.15861 1.03739 8.31484 1.10888 8.45625C2.80357 11.7628 6.15857 14 9.99982 14C11.1467 14 12.2408 13.7797 13.2695 13.4122L11.8192 12.2784C11.2273 12.4125 10.6214 12.5 9.99982 12.5Z" fill="white"/>
</g>
<defs>
<clipPath id="clip0">
<rect width="20" height="16" fill="white"/>
</clipPath>
</defs>
</svg>
