<svg width="30" height="24" viewBox="0 0 30 24" fill="none" xmlns="http://www.w3.org/2000/svg">
<path d="M29.8591 22.7462L1.07787 0.0820613C1.00022 0.020001 0.9011 -0.00868822 0.802303 0.00229894C0.703507 0.0132861 0.613115 0.0630506 0.550994 0.140655L0.0822443 0.727062C0.0201313 0.804657 -0.00863629 0.903736 0.00226264 1.00253C0.0131616 1.10132 0.0628354 1.19175 0.140369 1.25394L28.9216 23.918C28.9601 23.9488 29.0042 23.9717 29.0516 23.9855C29.0989 23.9992 29.1485 24.0035 29.1974 23.998C29.2464 23.9926 29.2938 23.9775 29.337 23.9538C29.3802 23.93 29.4182 23.8979 29.449 23.8594L29.9177 23.273C29.9798 23.1954 30.0085 23.0963 29.9975 22.9975C29.9865 22.8987 29.9367 22.8083 29.8591 22.7462ZM14.9997 4.50004C16.5905 4.50177 18.1156 5.13447 19.2405 6.25932C20.3653 7.38416 20.998 8.90928 20.9997 10.5C20.9997 11.5135 20.7232 12.4543 20.2779 13.2924L21.4708 14.2299C22.1083 13.1293 22.4997 11.866 22.4997 10.5C22.4997 8.77363 21.8946 7.20426 20.9163 5.93769C23.5373 7.26086 25.6688 9.38421 27.0021 12C26.2053 13.5469 25.1281 14.9323 23.8254 16.0857L25.0122 17.0204C26.3468 15.7885 27.4905 14.3363 28.3371 12.684C28.4443 12.4718 28.5002 12.2375 28.5002 11.9998C28.5002 11.7621 28.4443 11.5278 28.3371 11.3157C25.7951 6.35582 20.7626 3.00003 14.9997 3.00003C12.8943 2.99892 10.8135 3.45355 8.90037 4.33269L11.0458 6.02019C12.1047 5.08691 13.4791 4.50004 14.9997 4.50004ZM17.8526 11.3827C17.9995 10.9349 18.0373 10.4586 17.963 9.9932C17.8887 9.52784 17.7044 9.08695 17.4254 8.70719C17.1463 8.32742 16.7807 8.01977 16.3588 7.80981C15.9369 7.59985 15.471 7.49365 14.9997 7.50004C14.9529 7.50004 14.9111 7.51129 14.8661 7.51363C15.0481 8.00087 15.0441 8.53807 14.8549 9.02254L17.8526 11.3827ZM7.65162 9.07832C7.55416 9.54605 7.50329 10.0223 7.49974 10.5C7.49493 11.7566 7.80713 12.9941 8.40745 14.0981C9.00777 15.202 9.87683 16.1367 10.9342 16.8156C11.9916 17.4946 13.2031 17.8959 14.4567 17.9824C15.7104 18.0689 16.9655 17.8378 18.1061 17.3105L16.7196 16.2188C16.1712 16.3843 15.6016 16.5 15.0002 16.5C13.4094 16.4983 11.8842 15.8656 10.7593 14.7408C9.63441 13.616 9.00161 12.0909 8.99974 10.5C8.99974 10.3857 9.0274 10.2788 9.03349 10.1663L7.65162 9.07832ZM14.9997 19.5001C9.96724 19.5001 5.36834 16.6261 2.99974 12C3.81678 10.4063 4.92584 9.06004 6.20178 7.93504L4.98959 6.98019C3.65459 8.21207 2.51131 9.66379 1.66474 11.3161C1.55751 11.5283 1.50164 11.7626 1.50164 12.0003C1.50164 12.238 1.55751 12.4723 1.66474 12.6844C4.2049 17.6443 9.2374 21.0001 14.9997 21.0001C17.1052 21.0011 19.186 20.5465 21.0991 19.6674L19.728 18.5893C18.2369 19.1644 16.6474 19.5001 14.9997 19.5001Z" fill="#9E9EA7"/>
</svg>
