<svg width="20" height="16" viewBox="0 0 20 16" fill="none" xmlns="http://www.w3.org/2000/svg">
<path d="M19.8128 14.7187L1.12531 0.109688C1.07405 0.0686495 1.01521 0.038109 0.952152 0.0198098C0.889092 0.00151062 0.823046 -0.00418892 0.757784 0.00303664C0.692521 0.0102622 0.629321 0.0302713 0.571792 0.0619216C0.514263 0.0935719 0.463531 0.136244 0.422493 0.1875L0.109993 0.577812C0.0688585 0.629087 0.0382384 0.687969 0.0198847 0.751089C0.00153098 0.81421 -0.00419605 0.88033 0.0030313 0.945666C0.0102586 1.011 0.0302985 1.07427 0.0620042 1.13186C0.0937098 1.18944 0.136459 1.24021 0.187805 1.28125L18.8753 15.8903C18.9266 15.9313 18.9854 15.9619 19.0485 15.9802C19.1115 15.9985 19.1776 16.0042 19.2428 15.997C19.3081 15.9897 19.3713 15.9697 19.4288 15.9381C19.4863 15.9064 19.5371 15.8637 19.5781 15.8125L19.8906 15.4222C19.9318 15.3709 19.9624 15.312 19.9807 15.2489C19.9991 15.1858 20.0048 15.1197 19.9976 15.0543C19.9904 14.989 19.9703 14.9257 19.9386 14.8681C19.9069 14.8106 19.8642 14.7598 19.8128 14.7187ZM9.27499 4.57719L13.4872 7.87031C13.4178 5.99718 11.8903 4.5 10.0003 4.5C9.75651 4.50045 9.51342 4.52632 9.27499 4.57719ZM10.7256 11.4231L6.51343 8.13C6.58312 10.0028 8.11062 11.5 10.0003 11.5C10.2441 11.4995 10.4871 11.4737 10.7256 11.4231ZM10.0003 3.5C13.0831 3.5 15.9094 5.21875 17.4356 8C17.0615 8.68449 16.5992 9.31696 16.0606 9.88125L17.24 10.8031C17.8966 10.1007 18.4529 9.3108 18.8931 8.45593C18.9646 8.31452 19.0019 8.15829 19.0019 7.99984C19.0019 7.84139 18.9646 7.68516 18.8931 7.54375C17.1969 4.23719 13.8419 2 10.0003 2C8.85343 2 7.75937 2.21875 6.73062 2.58781L8.18093 3.72187C8.77281 3.5875 9.37906 3.5 10.0003 3.5ZM10.0003 12.5C6.91749 12.5 4.09156 10.7812 2.56499 8C2.93961 7.31551 3.40242 6.68314 3.94156 6.11906L2.76218 5.19719C2.10566 5.89952 1.54945 6.6893 1.10937 7.54406C1.03788 7.68547 1.00064 7.8417 1.00064 8.00015C1.00064 8.1586 1.03788 8.31484 1.10937 8.45625C2.80406 11.7628 6.15906 14 10.0003 14C11.1472 14 12.2412 13.7797 13.27 13.4122L11.8197 12.2784C11.2278 12.4125 10.6219 12.5 10.0003 12.5Z" fill="#D41367"/>
</svg>
