<svg width="20" height="20" viewBox="0 0 20 20" fill="none" xmlns="http://www.w3.org/2000/svg">
<path opacity="0.4" d="M17.5 0H2.5C1.83715 0.00062055 1.20162 0.264212 0.732918 0.732918C0.264212 1.20162 0.00062055 1.83715 0 2.5V13.75C0.00062055 14.4129 0.264212 15.0484 0.732918 15.5171C1.20162 15.9858 1.83715 16.2494 2.5 16.25H6.25V19.5312C6.24981 19.618 6.27369 19.7031 6.31897 19.777C6.36426 19.851 6.42917 19.9109 6.5065 19.9502C6.58382 19.9895 6.67052 20.0065 6.75696 19.9994C6.8434 19.9924 6.92618 19.9615 6.99609 19.9102L11.875 16.25H17.5C18.1629 16.2494 18.7984 15.9858 19.2671 15.5171C19.7358 15.0484 19.9994 14.4129 20 13.75V2.5C19.9994 1.83715 19.7358 1.20162 19.2671 0.732918C18.7984 0.264212 18.1629 0.00062055 17.5 0V0ZM12.5 5.20312C12.7071 5.20312 12.9095 5.26452 13.0816 5.37956C13.2538 5.49459 13.388 5.65809 13.4672 5.84938C13.5464 6.04067 13.5672 6.25116 13.5268 6.45424C13.4864 6.65731 13.3867 6.84384 13.2403 6.99025C13.0938 7.13666 12.9073 7.23637 12.7042 7.27676C12.5012 7.31715 12.2907 7.29642 12.0994 7.21719C11.9081 7.13795 11.7446 7.00377 11.6296 6.83161C11.5145 6.65945 11.4531 6.45705 11.4531 6.25C11.4531 5.97235 11.5634 5.70608 11.7597 5.50975C11.9561 5.31342 12.2224 5.20312 12.5 5.20312ZM7.5 5.20312C7.70705 5.20312 7.90945 5.26452 8.08161 5.37956C8.25377 5.49459 8.38795 5.65809 8.46719 5.84938C8.54642 6.04067 8.56715 6.25116 8.52676 6.45424C8.48637 6.65731 8.38666 6.84384 8.24025 6.99025C8.09384 7.13666 7.90731 7.23637 7.70424 7.27676C7.50116 7.31715 7.29067 7.29642 7.09938 7.21719C6.90809 7.13795 6.74459 7.00377 6.62956 6.83161C6.51452 6.65945 6.45312 6.45705 6.45312 6.25C6.45312 5.97235 6.56342 5.70608 6.75975 5.50975C6.95608 5.31342 7.22235 5.20312 7.5 5.20312ZM13.9141 10.707C13.4288 11.2696 12.828 11.721 12.1526 12.0304C11.4771 12.3398 10.7429 12.5 10 12.5C9.25706 12.5 8.52286 12.3398 7.84741 12.0304C7.17197 11.721 6.57116 11.2696 6.08594 10.707C5.99204 10.5797 5.94991 10.4216 5.96804 10.2644C5.98617 10.1073 6.06322 9.96285 6.18363 9.86027C6.30405 9.75769 6.45888 9.70459 6.61691 9.71167C6.77494 9.71876 6.9244 9.7855 7.03516 9.89844C7.40298 10.323 7.85786 10.6635 8.36892 10.8967C8.87997 11.1299 9.43523 11.2505 9.99699 11.2501C10.5587 11.2497 11.1138 11.1285 11.6246 10.8946C12.1353 10.6607 12.5898 10.3196 12.957 9.89453C13.0653 9.76939 13.2186 9.69206 13.3836 9.67936C13.5486 9.66665 13.7119 9.71961 13.838 9.8267C13.9642 9.93379 14.0429 10.0864 14.0572 10.2512C14.0714 10.4161 14.02 10.5799 13.9141 10.707Z" fill="#D41367"/>
<path d="M12.4999 7.29688C12.707 7.29688 12.9094 7.23548 13.0816 7.12045C13.2537 7.00541 13.3879 6.84191 13.4671 6.65062C13.5464 6.45933 13.5671 6.24884 13.5267 6.04577C13.4863 5.84269 13.3866 5.65616 13.2402 5.50975C13.0938 5.36334 12.9073 5.26363 12.7042 5.22324C12.5011 5.18285 12.2906 5.20358 12.0993 5.28281C11.908 5.36205 11.7445 5.49623 11.6295 5.66839C11.5145 5.84055 11.4531 6.04295 11.4531 6.25C11.4531 6.52765 11.5634 6.79393 11.7597 6.99025C11.956 7.18658 12.2223 7.29688 12.4999 7.29688ZM7.49995 7.29688C7.707 7.29688 7.9094 7.23548 8.08156 7.12045C8.25372 7.00541 8.3879 6.84191 8.46713 6.65062C8.54637 6.45933 8.5671 6.24884 8.5267 6.04577C8.48631 5.84269 8.38661 5.65616 8.2402 5.50975C8.09379 5.36334 7.90725 5.26363 7.70418 5.22324C7.50111 5.18285 7.29061 5.20358 7.09932 5.28281C6.90803 5.36205 6.74453 5.49623 6.6295 5.66839C6.51447 5.84055 6.45307 6.04295 6.45307 6.25C6.45307 6.52765 6.56337 6.79393 6.75969 6.99025C6.95602 7.18658 7.2223 7.29688 7.49995 7.29688ZM13.8398 9.82422C13.7131 9.71725 13.5492 9.66463 13.3839 9.6778C13.2186 9.69097 13.0652 9.76885 12.957 9.89453C12.5897 10.3196 12.1353 10.6607 11.6245 10.8946C11.1138 11.1285 10.5587 11.2497 9.99693 11.2501C9.43517 11.2505 8.87992 11.1299 8.36886 10.8967C7.85781 10.6635 7.40292 10.323 7.0351 9.89844C6.92434 9.7855 6.77488 9.71876 6.61686 9.71167C6.45883 9.70459 6.304 9.75769 6.18358 9.86027C6.06316 9.96285 5.98612 10.1073 5.96799 10.2644C5.94986 10.4216 5.99199 10.5797 6.08588 10.707C6.57111 11.2696 7.17191 11.721 7.84736 12.0304C8.5228 12.3398 9.25701 12.5 9.99995 12.5C10.7429 12.5 11.4771 12.3398 12.1525 12.0304C12.828 11.721 13.4288 11.2696 13.914 10.707C13.9673 10.6443 14.0076 10.5716 14.0327 10.4932C14.0579 10.4148 14.0672 10.3322 14.0603 10.2502C14.0534 10.1682 14.0304 10.0883 13.9926 10.0152C13.9547 9.94211 13.9028 9.8772 13.8398 9.82422Z" fill="#D41367"/>
</svg>
