<svg width="15" height="12" viewBox="0 0 15 12" fill="none" xmlns="http://www.w3.org/2000/svg">
<path d="M8.80952 9.21429H5.7619C5.55983 9.21429 5.36604 9.29456 5.22316 9.43744C5.08027 9.58033 5 9.77412 5 9.97619V10.7381C5 10.9402 5.08027 11.134 5.22316 11.2768C5.36604 11.4197 5.55983 11.5 5.7619 11.5H8.80952C9.01159 11.5 9.20539 11.4197 9.34827 11.2768C9.49116 11.134 9.57143 10.9402 9.57143 10.7381V9.97619C9.57143 9.77412 9.49116 9.58033 9.34827 9.43744C9.20539 9.29456 9.01159 9.21429 8.80952 9.21429ZM11.9048 5.07143H2.7619C2.55983 5.07143 2.36604 5.1517 2.22316 5.29459C2.08027 5.43747 2 5.63126 2 5.83333V6.59524C2 6.79731 2.08027 6.9911 2.22316 7.13399C2.36604 7.27687 2.55983 7.35714 2.7619 7.35714H11.9048C12.1068 7.35714 12.3006 7.27687 12.4435 7.13399C12.5864 6.9911 12.6667 6.79731 12.6667 6.59524V5.83333C12.6667 5.63126 12.5864 5.43747 12.4435 5.29459C12.3006 5.1517 12.1068 5.07143 11.9048 5.07143ZM13.9524 0.5H0.761905C0.559835 0.5 0.366042 0.580272 0.223157 0.723157C0.080272 0.866042 0 1.05984 0 1.2619V2.02381C0 2.22588 0.080272 2.41967 0.223157 2.56256C0.366042 2.70544 0.559835 2.78571 0.761905 2.78571H13.9524C14.1545 2.78571 14.3482 2.70544 14.4911 2.56256C14.634 2.41967 14.7143 2.22588 14.7143 2.02381V1.2619C14.7143 1.05984 14.634 0.866042 14.4911 0.723157C14.3482 0.580272 14.1545 0.5 13.9524 0.5Z" fill="#3D3D4E"/>
</svg>
