<svg width="36" height="36" viewBox="0 0 36 36" fill="none" xmlns="http://www.w3.org/2000/svg">
<path d="M36 36L6 36C2.68629 36 0 33.3137 0 30L0 6C0 2.68629 2.68629 0 6 0L36 0L36 36Z" fill="white"/>
<g clip-path="url(#clip0)">
<path d="M26.5337 18.1871C26.5337 17.3677 26.4672 16.7697 26.3233 16.1497H16.9667V19.848H22.4588C22.3481 20.7671 21.7502 22.1512 20.4214 23.0813L20.4028 23.2051L23.3612 25.4969L23.5661 25.5174C25.4485 23.7789 26.5337 21.221 26.5337 18.1871Z" fill="#4285F4"/>
<path d="M16.9668 27.9314C19.6575 27.9314 21.9163 27.0455 23.5663 25.5175L20.4215 23.0813C19.58 23.6682 18.4505 24.0779 16.9668 24.0779C14.3314 24.0779 12.0947 22.3395 11.2973 19.9366L11.1805 19.9466L8.10427 22.3273L8.06404 22.4391C9.70283 25.6946 13.069 27.9314 16.9668 27.9314Z" fill="#34A853"/>
<path d="M11.2973 19.9367C11.0869 19.3166 10.9651 18.6522 10.9651 17.9657C10.9651 17.2791 11.0869 16.6148 11.2862 15.9947L11.2806 15.8627L8.16589 13.4437L8.06398 13.4922C7.38856 14.8431 7.00101 16.3601 7.00101 17.9657C7.00101 19.5713 7.38856 21.0882 8.06398 22.4391L11.2973 19.9367Z" fill="#FBBC05"/>
<path d="M16.9667 11.8534C18.838 11.8534 20.1003 12.6617 20.8201 13.3372L23.6326 10.5911C21.9053 8.9855 19.6574 8 16.9667 8C13.069 8 9.70282 10.2367 8.06404 13.4921L11.2863 15.9947C12.0947 13.5918 14.3314 11.8534 16.9667 11.8534Z" fill="#EB4335"/>
</g>
<defs>
<clipPath id="clip0">
<rect width="19.544" height="20" fill="white" transform="translate(7 8)"/>
</clipPath>
</defs>
</svg>
