<svg width="14" height="16" viewBox="0 0 14 16" fill="none" xmlns="http://www.w3.org/2000/svg">
<path d="M7.00049 12.875C6.51611 12.875 6.12549 12.4844 6.12549 12V10C6.12549 9.51565 6.51611 9.12503 7.00049 9.12503C7.48486 9.12503 7.87549 9.51565 7.87549 10V12C7.87549 12.4844 7.48486 12.875 7.00049 12.875ZM14.0005 7.50003V14.5C14.0005 15.3282 13.3286 16 12.5005 16H1.50049C0.672363 16 0.000488281 15.3282 0.000488281 14.5V7.50003C0.000488281 6.6719 0.672363 6.00002 1.50049 6.00002H2.50049V4.50002C2.50049 2.01564 4.52549 -0.00623556 7.01299 1.44511e-05C9.50049 0.00626446 11.5005 2.05627 11.5005 4.54377V6.00002H12.5005C13.3286 6.00002 14.0005 6.6719 14.0005 7.50003ZM4.00049 6.00002H10.0005V4.50002C10.0005 2.84689 8.65361 1.50002 7.00049 1.50002C5.34736 1.50002 4.00049 2.84689 4.00049 4.50002V6.00002ZM12.5005 7.50003H1.50049V14.5H12.5005V7.50003Z" fill="#D41367"/>
</svg>
