<svg width="18" height="20" viewBox="0 0 18 20" fill="none" xmlns="http://www.w3.org/2000/svg">
<g clip-path="url(#clip0)">
<path d="M8.75 16.0933C8.14453 16.0933 7.65625 15.605 7.65625 14.9995V12.4995C7.65625 11.8941 8.14453 11.4058 8.75 11.4058C9.35547 11.4058 9.84375 11.8941 9.84375 12.4995V14.9995C9.84375 15.605 9.35547 16.0933 8.75 16.0933ZM17.5 9.37453V18.1245C17.5 19.1597 16.6602 19.9995 15.625 19.9995H1.875C0.839844 19.9995 0 19.1597 0 18.1245V9.37453C0 8.33937 0.839844 7.49953 1.875 7.49953H3.125V5.62453C3.125 2.51906 5.65625 -0.00828272 8.76562 -0.000470217C11.875 0.00734228 14.375 2.56984 14.375 5.67922V7.49953H15.625C16.6602 7.49953 17.5 8.33937 17.5 9.37453ZM5 7.49953H12.5V5.62453C12.5 3.55812 10.8164 1.87453 8.75 1.87453C6.68359 1.87453 5 3.55812 5 5.62453V7.49953ZM15.625 9.37453H1.875V18.1245H15.625V9.37453Z" fill="#3D3D4E"/>
</g>
<defs>
<clipPath id="clip0">
<rect width="17.5" height="20" fill="white"/>
</clipPath>
</defs>
</svg>
