<svg width="21" height="24" viewBox="0 0 21 24" fill="none" xmlns="http://www.w3.org/2000/svg">
<path d="M10.5 19.6875C9.98438 19.6875 9.5625 19.2657 9.5625 18.75V15.75C9.5625 15.2344 9.98438 14.8125 10.5 14.8125C11.0156 14.8125 11.4375 15.2344 11.4375 15.75V18.75C11.4375 19.2657 11.0156 19.6875 10.5 19.6875ZM21 12.75V21.75C21 22.9922 19.9922 24 18.75 24H2.25C1.00781 24 0 22.9922 0 21.75V12.75C0 11.5079 1.00781 10.5 2.25 10.5H3V7.50004C3 3.35629 6.375 -0.0140187 10.5234 4.3847e-05C14.6672 0.0141063 18 3.42661 18 7.57036V10.5H18.75C19.9922 10.5 21 11.5079 21 12.75ZM4.5 10.5H16.5V7.50004C16.5 4.19067 13.8094 1.50004 10.5 1.50004C7.19063 1.50004 4.5 4.19067 4.5 7.50004V10.5ZM19.5 21.75V12.75C19.5 12.3375 19.1625 12 18.75 12H2.25C1.8375 12 1.5 12.3375 1.5 12.75V21.75C1.5 22.1625 1.8375 22.5 2.25 22.5H18.75C19.1625 22.5 19.5 22.1625 19.5 21.75Z" fill="#9E9EA7"/>
</svg>
