<svg width="28" height="28" viewBox="0 0 28 28" fill="none" xmlns="http://www.w3.org/2000/svg">
<path d="M17.8225 20.887C18.0851 20.255 18.5805 19.7477 19.2068 19.4697C19.833 19.1918 20.5421 19.1644 21.188 19.3933C21.1988 19.3952 21.2092 19.3992 21.2185 19.4049C21.2702 19.4238 21.3211 19.4456 21.3728 19.4688C21.3855 19.4731 21.3979 19.4782 21.4099 19.4841C23.5857 20.3987 25.5628 21.7268 27.2312 23.3943C27.7234 23.8942 27.9987 24.5674 27.9976 25.2683C27.9965 25.9693 27.7191 26.6416 27.2254 27.1399C26.7317 27.6382 26.0613 27.9224 25.3593 27.9311C24.6574 27.9397 23.9802 27.6721 23.4743 27.1862C23.4678 27.1796 23.4612 27.1724 23.4539 27.1658L23.4321 27.144C22.2401 25.9568 20.8261 25.0148 19.2706 24.3715C18.9463 24.2377 18.6516 24.0414 18.4033 23.7939C18.1551 23.5463 17.9581 23.2524 17.8236 22.9288C17.6891 22.6052 17.6198 22.2584 17.6196 21.908C17.6194 21.5577 17.6884 21.2108 17.8225 20.887Z" fill="#FF9E18"/>
<path d="M14.3297 18.0564L11.6584 20.7214L10.9905 21.3891L5.20842 27.1614C4.96039 27.409 4.66596 27.6054 4.34192 27.7394C4.01788 27.8734 3.67059 27.9423 3.31986 27.9423C2.61155 27.9422 1.93227 27.6612 1.43146 27.1611C0.930658 26.6609 0.649346 25.9827 0.649414 25.2754C0.649482 24.5682 0.930925 23.89 1.43183 23.39C3.12363 21.6962 5.13407 20.353 7.34755 19.4377C9.56103 18.5224 11.9339 18.053 14.3297 18.0564Z" fill="#FF671D"/>
<path d="M27.2274 5.1785L14.3295 18.0565C11.9337 18.0532 9.56093 18.5227 7.34748 19.438C5.13402 20.3533 3.12356 21.6964 1.43164 23.39L14.3295 10.512C16.7253 10.5153 19.0981 10.0458 21.3116 9.13047C23.525 8.21516 25.5355 6.87211 27.2274 5.1785Z" fill="#FF4438"/>
<path d="M23.3922 1.46631L20.8068 4.04771L17.6676 7.18056L17.0011 7.84607L14.3305 10.5125C11.9347 10.5159 9.56187 10.0465 7.34839 9.13113C5.13491 8.21582 3.12446 6.87268 1.43264 5.17894C0.944023 4.67629 0.673063 4.0019 0.678297 3.30144C0.683531 2.60099 0.96454 1.9307 1.46062 1.43539C1.95669 0.94008 2.62802 0.659506 3.32956 0.65428C4.03109 0.649053 4.70653 0.919595 5.20996 1.40746C6.37401 2.57341 7.75209 3.5046 9.26888 4.15015L9.28416 4.15669C9.35693 4.18866 9.42969 4.21845 9.50901 4.25042C11.0422 4.86405 12.6788 5.17922 14.3305 5.17894C15.9823 5.17922 17.6189 4.86405 19.152 4.25042C19.2248 4.21845 19.3027 4.18866 19.3769 4.15669L19.3922 4.15015C20.8832 3.51568 22.2405 2.60503 23.3922 1.46631Z" fill="#D41367"/>
<path d="M27.2275 5.17849C25.5356 6.8721 23.5251 8.21515 21.3116 9.13046C19.0982 10.0458 16.7254 10.5153 14.3296 10.512L17.0001 7.84562L17.6667 7.18011L20.8058 4.04726L23.3927 1.46586C23.413 1.44552 23.4312 1.42735 23.4502 1.40701L23.472 1.38739L23.4785 1.38013C23.9852 0.894361 24.663 0.627373 25.3653 0.636969C26.0677 0.646564 26.738 0.93197 27.2311 1.43139C27.7242 1.93082 28.0005 2.60407 28.0001 3.30538C27.9997 4.00669 27.7226 4.67963 27.2289 5.17849H27.2275Z" fill="#A50064"/>
</svg>
