<svg width="202" height="40" viewBox="0 0 202 40" fill="none" xmlns="http://www.w3.org/2000/svg">
<path d="M46.7523 14.1227V10.1465H62.5348V13.2311L52.2616 24.9021H62.9818V28.8782H45.6338V26.1278L56.3187 14.1227H46.7523Z" fill="black"/>
<path d="M66.1917 5.31417C66.1844 4.96435 66.2502 4.61686 66.3848 4.2938C66.5194 3.97073 66.7198 3.67918 66.9734 3.43769C67.2225 3.18989 67.519 2.99473 67.8453 2.86384C68.1716 2.73296 68.521 2.66904 68.8725 2.67588C69.218 2.67172 69.5608 2.73703 69.8804 2.86791C70.2001 2.99878 70.4901 3.19256 70.7332 3.43769C70.9872 3.679 71.188 3.97047 71.323 4.29354C71.4579 4.61661 71.524 4.9642 71.517 5.31417C71.5244 5.66416 71.4587 6.01186 71.3241 6.33511C71.1895 6.65836 70.989 6.95008 70.7353 7.1917C70.4922 7.43682 70.2022 7.6306 69.8825 7.76148C69.5629 7.89235 69.2201 7.95766 68.8746 7.9535C68.5231 7.96035 68.1737 7.89642 67.8474 7.76554C67.5211 7.63465 67.2246 7.43949 66.9755 7.1917C66.7214 6.95027 66.5205 6.65862 66.3855 6.33536C66.2506 6.0121 66.1846 5.66432 66.1917 5.31417ZM71.1012 28.8782H66.6314V10.1465H71.1012V28.8782Z" fill="black"/>
<path d="M79.578 11.0194C81.0112 10.1639 82.6535 9.72097 84.3232 9.73967C85.8624 9.73967 87.1655 10.0306 88.2327 10.6125C89.2999 11.1944 89.9947 11.9441 90.3169 12.8616V10.1465H94.7867V26.8709C94.7867 30.316 93.9056 32.8744 92.1433 34.546C90.381 36.2177 87.9368 37.0539 84.8108 37.0546C82.9728 37.0725 81.1479 36.7447 79.4314 36.0883C77.7807 35.4448 76.2856 34.3547 74.946 32.818L77.7381 30.0302C79.4747 32.0624 81.7328 33.0785 84.5124 33.0785C86.5727 33.0785 88.0744 32.5941 89.0175 31.6254C89.9607 30.6568 90.4319 29.1826 90.4312 27.203V26.2689C89.9857 27.0619 89.2289 27.7192 88.161 28.2409C87.0931 28.7626 85.8149 29.0228 84.3264 29.0214C82.6589 29.0401 81.018 28.6033 79.5811 27.7583C78.1655 26.9281 76.9966 25.7366 76.1945 24.3063C75.3629 22.845 74.9471 21.2221 74.9471 19.4376C74.9297 17.7223 75.3596 16.0319 76.1945 14.5326C76.9895 13.082 78.1574 11.8693 79.578 11.0194ZM82.0904 24.3437C82.9481 24.8436 83.9259 25.1009 84.9189 25.0878C85.9356 25.101 86.9375 24.8441 87.8221 24.3437C88.6869 23.8484 89.4054 23.134 89.905 22.2726C90.4047 21.4113 90.6678 20.4335 90.6678 19.4381C90.6678 18.4428 90.4047 17.465 89.905 16.6037C89.4054 15.7423 88.6869 15.0279 87.8221 14.5326C86.9376 14.0318 85.9357 13.7746 84.9189 13.7874C83.9259 13.7744 82.9481 14.0316 82.0904 14.5316C81.253 15.0195 80.5644 15.726 80.0988 16.5752C79.6219 17.4573 79.3722 18.444 79.3722 19.4464C79.3722 20.4489 79.6219 21.4356 80.0988 22.3177C80.5688 23.1591 81.2567 23.8588 82.0904 24.3437Z" fill="black"/>
<path d="M104.129 12.8222C104.576 11.9061 105.302 11.1689 106.306 10.6105C107.311 10.0521 108.484 9.77534 109.824 9.78018C112.057 9.78018 113.8 10.4489 115.054 11.7864C116.307 13.1239 116.934 14.9575 116.934 17.2872V28.8782H112.464V17.914C112.464 16.6257 112.111 15.61 111.403 14.8668C110.695 14.1237 109.721 13.7518 108.481 13.7511C107.215 13.7511 106.173 14.1538 105.354 14.9592C104.536 15.7646 104.126 16.8115 104.126 18.0998V28.8782H99.6995V10.1466H104.129V12.8222Z" fill="black"/>
<path d="M120.669 23.8984C120.669 22.0648 121.357 20.6153 122.734 19.5497C124.111 18.4842 126.252 17.7397 129.156 17.3162C130.447 17.1432 131.328 17.0007 131.799 16.8886C132.27 16.7765 132.599 16.634 132.785 16.461C132.971 16.288 133.064 16.0033 133.064 15.6068V15.421C133.064 14.826 132.791 14.3181 132.245 13.8974C131.699 13.4767 130.83 13.2671 129.64 13.2685C128.577 13.2621 127.527 13.4971 126.568 13.9555C125.617 14.4116 124.773 15.0643 124.093 15.8704L121.598 13.3795C122.496 12.1579 123.686 11.1805 125.06 10.5368C126.45 9.87944 128.001 9.55113 129.712 9.55182C132.22 9.55182 134.131 10.0908 135.445 11.1688C136.76 12.2468 137.418 13.7891 137.42 15.7957V28.873H133.512L133.366 26.0904C132.884 27.1644 132.051 28.0427 131.002 28.5814C129.948 29.1266 128.714 29.3992 127.299 29.3992C125.239 29.3992 123.619 28.9034 122.441 27.9119C121.263 26.9204 120.672 25.5826 120.669 23.8984ZM133.064 21.1844V19.8476C132.816 20.0213 132.388 20.1697 131.78 20.2928C131.172 20.416 130.173 20.589 128.783 20.8118C127.493 21.0104 126.544 21.3266 125.936 21.7604C125.328 22.1942 125.024 22.7578 125.023 23.4511C125.023 24.143 125.29 24.6758 125.824 25.0494C126.357 25.4231 127.108 25.6089 128.076 25.6068C129.615 25.6068 130.831 25.2228 131.724 24.4547C132.617 23.6867 133.064 22.5966 133.064 21.1844Z" fill="black"/>
<path d="M140.711 10.1465H143.13V2.97272H147.6V10.1465H151.654V14.1943H147.6V28.8782H143.13V14.2026H140.711V10.1465Z" fill="black"/>
<path d="M154.28 5.31417C154.272 4.96436 154.338 4.61686 154.473 4.2938C154.607 3.97073 154.808 3.67918 155.061 3.43769C155.311 3.18968 155.608 2.99441 155.934 2.86352C156.261 2.73263 156.611 2.66882 156.962 2.67588C157.308 2.67161 157.651 2.73686 157.97 2.86774C158.29 2.99863 158.58 3.19246 158.823 3.43769C159.077 3.67906 159.277 3.9706 159.412 4.29369C159.547 4.61678 159.612 4.96433 159.605 5.31417C159.612 5.6642 159.547 6.01197 159.412 6.33526C159.278 6.65855 159.077 6.95024 158.823 7.1917C158.58 7.43692 158.29 7.63076 157.97 7.76164C157.651 7.89253 157.308 7.95778 156.962 7.9535C156.611 7.96029 156.262 7.89634 155.935 7.76546C155.609 7.63458 155.313 7.43945 155.063 7.1917C154.809 6.95027 154.608 6.65863 154.473 6.33537C154.338 6.0121 154.272 5.66432 154.28 5.31417ZM159.193 28.874H154.723V10.1465H159.193V28.874Z" fill="black"/>
<path d="M171.97 22.8575L177.256 10.1465H181.871L173.83 28.8782H170.071L162.03 10.1465H166.647L171.97 22.8575Z" fill="black"/>
<path d="M187.687 10.8523C189.188 10.0344 190.869 9.62587 192.73 9.62656C194.543 9.62656 196.155 10.0476 197.569 10.8897C198.958 11.7059 200.093 12.8918 200.846 14.3147C201.622 15.7792 202.018 17.4144 201.999 19.0713C201.999 19.1709 201.993 19.3629 201.981 19.6473C201.968 19.9327 201.95 20.2607 201.925 20.6333H187.332C187.407 22.1195 187.953 23.3086 188.971 24.2005C189.988 25.0923 191.328 25.5383 192.991 25.5383C194.058 25.5383 194.976 25.3587 195.746 24.9996C196.516 24.6405 197.285 24.077 198.054 23.3089L200.733 25.9846C199.592 27.1989 198.37 28.06 197.067 28.5679C195.719 29.0839 194.285 29.3423 192.842 29.3297C190.882 29.3297 189.149 28.9332 187.644 28.1403C186.173 27.3768 184.957 26.2013 184.145 24.7578C183.314 23.2965 182.898 21.5992 182.898 19.666V19.5175C182.898 17.5601 183.32 15.832 184.163 14.3333C184.979 12.8595 186.202 11.6511 187.687 10.8523ZM195.094 13.9742C194.362 13.6026 193.552 13.4115 192.73 13.4169C191.341 13.4169 190.138 13.8134 189.12 14.6063C188.103 15.3992 187.544 16.3655 187.445 17.5051H197.458C197.462 16.7752 197.241 16.0617 196.825 15.4615C196.385 14.8261 195.789 14.3141 195.094 13.9742Z" fill="black"/>
<path d="M24.532 28.928C24.9071 28.0251 25.6149 27.3004 26.5094 26.9034C27.404 26.5063 28.4171 26.4672 29.3396 26.7941C29.3551 26.7969 29.3699 26.8025 29.3833 26.8107C29.4571 26.8377 29.5299 26.8688 29.6037 26.9021C29.6218 26.9081 29.6395 26.9154 29.6567 26.9239C32.7648 28.2304 35.5891 30.1275 37.9726 32.5097C38.6756 33.2238 39.0689 34.1854 39.0673 35.1867C39.0658 36.1881 38.6695 37.1485 37.9642 37.8603C37.2589 38.5722 36.3013 38.9782 35.2985 38.9906C34.2957 39.0029 33.3284 38.6206 32.6057 37.9264C32.5964 37.9171 32.587 37.9067 32.5766 37.8974L32.5454 37.8662C30.8426 36.1702 28.8228 34.8246 26.6006 33.9057C26.1374 33.7145 25.7164 33.4341 25.3617 33.0805C25.0071 32.7269 24.7256 32.3069 24.5336 31.8447C24.3415 31.3825 24.2425 30.887 24.2422 30.3865C24.2419 29.886 24.3404 29.3904 24.532 28.928Z" fill="#FF9E18"/>
<path d="M19.5426 24.8844L15.7266 28.6914L14.7724 29.6452L6.51263 37.8911C6.15832 38.2448 5.73771 38.5254 5.27482 38.7168C4.81192 38.9081 4.31581 39.0066 3.81479 39.0066C2.80295 39.0065 1.83259 38.6051 1.11717 37.8906C0.401762 37.1762 -9.7453e-05 36.2072 1.77269e-08 35.197C9.74884e-05 34.1867 0.402144 33.2178 1.11769 32.5035C3.53446 30.0839 6.40642 28.1652 9.56842 26.8576C12.7304 25.5501 16.1201 24.8795 19.5426 24.8844Z" fill="#FF671D"/>
<path d="M37.9674 6.48801L19.5426 24.8844C16.1201 24.8798 12.7305 25.5505 9.56857 26.858C6.4066 28.1656 3.53461 30.0841 1.11768 32.5035L19.5426 14.1071C22.965 14.1117 26.3546 13.441 29.5166 12.1335C32.6785 10.8259 35.5505 8.90736 37.9674 6.48801Z" fill="#FF4438"/>
<path d="M32.4883 1.18504L28.795 4.87263L24.3107 9.34797L23.3585 10.2987L19.5436 14.1077C16.1212 14.1126 12.7315 13.442 9.56948 12.1344C6.40748 10.8268 3.53552 8.90814 1.11872 6.48861C0.420717 5.77057 0.0336447 4.80718 0.041122 3.80656C0.0485993 2.80595 0.450026 1.84843 1.15868 1.14087C1.86734 0.433311 2.82633 0.0325048 3.8285 0.025039C4.83066 0.0175733 5.79554 0.404048 6.51469 1.10097C8.17757 2.76656 10.1462 4.09679 12.3129 5.01897L12.3348 5.02831C12.4387 5.07398 12.5427 5.11653 12.656 5.1622C14.8461 6.03878 17.184 6.48901 19.5436 6.48861C21.9032 6.48901 24.2411 6.03878 26.4312 5.1622C26.5352 5.11653 26.6464 5.07398 26.7524 5.02831L26.7743 5.01897C28.9043 4.11261 30.8431 2.81172 32.4883 1.18504Z" fill="#D41367"/>
<path d="M37.9674 6.48801C35.5504 8.90736 32.6784 10.8259 29.5165 12.1335C26.3545 13.441 22.9649 14.1117 19.5425 14.1071L23.3574 10.2981L24.3096 9.34737L28.7939 4.87203L32.4893 1.18444C32.5184 1.15538 32.5444 1.12944 32.5714 1.10038L32.6026 1.07235L32.6119 1.06197C33.3357 0.368047 34.304 -0.0133502 35.3073 0.000357088C36.3106 0.0140643 37.2681 0.421773 37.9725 1.13521C38.6769 1.84865 39.0716 2.8104 39.071 3.81224C39.0704 4.81408 38.6747 5.77538 37.9694 6.48801H37.9674Z" fill="#A50064"/>
</svg>
