<svg width="48" height="48" viewBox="0 0 48 48" fill="none" xmlns="http://www.w3.org/2000/svg">
<path opacity="0.4" d="M24 0.75C11.1562 0.75 0.75 11.1562 0.75 24C0.75 36.8438 11.1562 47.25 24 47.25C36.8438 47.25 47.25 36.8438 47.25 24C47.25 11.1562 36.8438 0.75 24 0.75ZM34.6781 25.5938L21.975 38.2969C21.7668 38.5063 21.5192 38.6726 21.2465 38.786C20.9738 38.8995 20.6813 38.9579 20.3859 38.9579C20.0906 38.9579 19.7981 38.8995 19.5254 38.786C19.2527 38.6726 19.0051 38.5063 18.7969 38.2969L17.2031 36.7031C16.9937 36.4949 16.8274 36.2473 16.714 35.9746C16.6005 35.7019 16.5421 35.4094 16.5421 35.1141C16.5421 34.8187 16.6005 34.5262 16.714 34.2535C16.8274 33.9808 16.9937 33.7332 17.2031 33.525L26.7281 24L17.2031 14.475C16.9937 14.2668 16.8274 14.0192 16.714 13.7465C16.6005 13.4738 16.5421 13.1813 16.5421 12.8859C16.5421 12.5906 16.6005 12.2981 16.714 12.0254C16.8274 11.7527 16.9937 11.5051 17.2031 11.2969L18.7969 9.70312C19.0051 9.49365 19.2527 9.32742 19.5254 9.21398C19.7981 9.10054 20.0906 9.04215 20.3859 9.04215C20.6813 9.04215 20.9738 9.10054 21.2465 9.21398C21.5192 9.32742 21.7668 9.49365 21.975 9.70312L34.6781 22.4062C34.8879 22.6153 35.0543 22.8637 35.1679 23.1372C35.2814 23.4107 35.3399 23.7039 35.3399 24C35.3399 24.2961 35.2814 24.5893 35.1679 24.8628C35.0543 25.1363 34.8879 25.3847 34.6781 25.5938Z" fill="#6E6D7A"/>
</svg>
