<svg width="24" height="24" viewBox="0 0 24 24" fill="none" xmlns="http://www.w3.org/2000/svg">
<path d="M21.75 0H6.75C5.50734 0 4.5 1.00734 4.5 2.25V4.5H2.25C1.00734 4.5 0 5.50734 0 6.75V21.75C0 22.9927 1.00734 24 2.25 24H17.25C18.4927 24 19.5 22.9927 19.5 21.75V19.5H21.75C22.9927 19.5 24 18.4927 24 17.25V2.25C24 1.00734 22.9927 0 21.75 0ZM18 21.75C18 22.1634 17.6634 22.5 17.25 22.5H2.25C1.83656 22.5 1.5 22.1634 1.5 21.75V6.75C1.5 6.33656 1.83656 6 2.25 6H4.5V17.25C4.5 18.4927 5.50734 19.5 6.75 19.5H18V21.75ZM22.5 17.25C22.5 17.6634 22.1634 18 21.75 18H6.75C6.33656 18 6 17.6634 6 17.25V2.25C6 1.83656 6.33656 1.5 6.75 1.5H21.75C22.1634 1.5 22.5 1.83656 22.5 2.25V17.25Z" fill="#9E9EA7"/>
</svg>
