<svg width="16" height="16" viewBox="0 0 16 16" fill="none" xmlns="http://www.w3.org/2000/svg">
<path d="M9.09375 7.625L6.84375 6.94063C6.5625 6.85313 6.36875 6.5625 6.36875 6.23125C6.36875 5.82812 6.65625 5.5 7.00938 5.5H8.41562C8.63437 5.5 8.84688 5.55937 9.0375 5.66875C9.2375 5.78437 9.48438 5.775 9.65312 5.61875L10.0281 5.26562C10.2656 5.04063 10.225 4.65938 9.95625 4.47813C9.525 4.1875 9.02188 4.025 8.50625 4.00625V3.5C8.50625 3.225 8.28125 3 8.00625 3H7.50625C7.23125 3 7.00625 3.225 7.00625 3.5V4C5.83125 4.00312 4.875 5.00312 4.875 6.23125C4.875 7.21562 5.50625 8.09688 6.4125 8.375L8.6625 9.05937C8.94375 9.14687 9.1375 9.4375 9.1375 9.76875C9.1375 10.1719 8.85 10.5 8.49687 10.5H7.09062C6.87187 10.5 6.65938 10.4406 6.46875 10.3313C6.26875 10.2156 6.02187 10.225 5.85313 10.3813L5.47813 10.7344C5.24062 10.9594 5.28125 11.3406 5.55 11.5219C5.98125 11.8125 6.48438 11.975 7 11.9937V12.5C7 12.775 7.225 13 7.5 13H8C8.275 13 8.5 12.775 8.5 12.5V12C9.675 11.9969 10.6313 10.9969 10.6313 9.76875C10.6313 8.78438 10 7.90312 9.09375 7.625ZM7.75 0.25C3.46875 0.25 0 3.71875 0 8C0 12.2812 3.46875 15.75 7.75 15.75C12.0312 15.75 15.5 12.2812 15.5 8C15.5 3.71875 12.0312 0.25 7.75 0.25ZM7.75 14.25C4.30312 14.25 1.5 11.4469 1.5 8C1.5 4.55312 4.30312 1.75 7.75 1.75C11.1969 1.75 14 4.55312 14 8C14 11.4469 11.1969 14.25 7.75 14.25Z" fill="#D41367"/>
</svg>
