<svg width="20" height="20" viewBox="0 0 20 20" fill="none" xmlns="http://www.w3.org/2000/svg">
<path opacity="0.4" d="M14.0625 17.5H5.9375C5.9375 14.4742 7.74219 11.875 10 11.875C12.2578 11.875 14.0625 14.4734 14.0625 17.5Z" fill="#D41367" fill-opacity="0.4"/>
<path d="M3.4375 17.5C3.18886 17.5 2.9504 17.5988 2.77459 17.7746C2.59877 17.9504 2.5 18.1889 2.5 18.4375V19.0625C2.5 19.3111 2.59877 19.5496 2.77459 19.7254C2.9504 19.9012 3.18886 20 3.4375 20H16.5625C16.8111 20 17.0496 19.9012 17.2254 19.7254C17.4012 19.5496 17.5 19.3111 17.5 19.0625V18.4375C17.5 18.1889 17.4012 17.9504 17.2254 17.7746C17.0496 17.5988 16.8111 17.5 16.5625 17.5C16.5625 13.9453 14.5703 10.948 11.8422 10C14.5703 9.05195 16.5625 6.05469 16.5625 2.5C16.8111 2.5 17.0496 2.40123 17.2254 2.22541C17.4012 2.0496 17.5 1.81114 17.5 1.5625V0.9375C17.5 0.68886 17.4012 0.450403 17.2254 0.274587C17.0496 0.098772 16.8111 0 16.5625 0L3.4375 0C3.18886 0 2.9504 0.098772 2.77459 0.274587C2.59877 0.450403 2.5 0.68886 2.5 0.9375V1.5625C2.5 1.81114 2.59877 2.0496 2.77459 2.22541C2.9504 2.40123 3.18886 2.5 3.4375 2.5C3.4375 6.05469 5.42969 9.05195 8.15781 10C5.42969 10.948 3.4375 13.9453 3.4375 17.5ZM5.9375 2.5H14.0625C14.0625 5.52578 12.2578 8.125 10 8.125C7.74219 8.125 5.9375 5.52656 5.9375 2.5ZM10 11.875C12.2574 11.875 14.0625 14.4734 14.0625 17.5H5.9375C5.9375 14.4742 7.74219 11.875 10 11.875Z" fill="#D41367"/>
</svg>
