<svg width="21" height="24" viewBox="0 0 21 24" fill="none" xmlns="http://www.w3.org/2000/svg">
<path d="M20.4375 5.8125H0.5625C0.251859 5.8125 0 5.56064 0 5.25V3.75C0 3.43936 0.251859 3.1875 0.5625 3.1875H20.4375C20.7481 3.1875 21 3.43936 21 3.75V5.25C21 5.56064 20.7481 5.8125 20.4375 5.8125ZM20.4375 13.3125H0.5625C0.251859 13.3125 0 13.0606 0 12.75V11.25C0 10.9394 0.251859 10.6875 0.5625 10.6875H20.4375C20.7481 10.6875 21 10.9394 21 11.25V12.75C21 13.0606 20.7481 13.3125 20.4375 13.3125ZM20.4375 20.8125H0.5625C0.251859 20.8125 0 20.5606 0 20.25V18.75C0 18.4394 0.251859 18.1875 0.5625 18.1875H20.4375C20.7481 18.1875 21 18.4394 21 18.75V20.25C21 20.5606 20.7481 20.8125 20.4375 20.8125Z" fill="#0D0C22"/>
</svg>
