<svg width="18" height="20" viewBox="0 0 18 20" fill="none" xmlns="http://www.w3.org/2000/svg">
<g clip-path="url(#clip0)">
<path d="M15.625 9.37453H5V5.6714C5 3.6089 6.64453 1.89406 8.71094 1.87453C10.7969 1.85109 12.5 3.5425 12.5 5.62453V6.56203C12.5 7.08156 12.918 7.49953 13.4375 7.49953C13.957 7.49953 14.375 7.08156 14.375 6.56203V5.67922C14.375 2.56984 11.875 0.00734228 8.76172 -0.000470217C5.65625 -0.00828272 3.125 2.51906 3.125 5.62453V9.37453H1.875C0.839844 9.37453 0 10.2144 0 11.2495V18.1245C0 19.1597 0.839844 19.9995 1.875 19.9995H15.625C16.6602 19.9995 17.5 19.1597 17.5 18.1245V11.2495C17.5 10.2144 16.6602 9.37453 15.625 9.37453ZM15.625 18.1245H1.875V11.2495H15.625V18.1245ZM8.75 16.8745C8.14453 16.8745 7.65625 16.3862 7.65625 15.7808V13.5933C7.65625 12.9878 8.14453 12.4995 8.75 12.4995C9.35547 12.4995 9.84375 12.9878 9.84375 13.5933V15.7808C9.84375 16.3862 9.35547 16.8745 8.75 16.8745Z" fill="#3D3D4E"/>
</g>
<defs>
<clipPath id="clip0">
<rect width="17.5" height="20" fill="white"/>
</clipPath>
</defs>
</svg>
